<!--
    From https://thenounproject.com/search/?q=yoga&i=1017266
    Part of https://thenounproject.com/AliceNoir/collection/yoga/
 -->
<svg xmlns="http://www.w3.org/2000/svg" viewBox="0 0 5 5"><title>Yoga</title><style>path { fill: #1d5a59; }</style><g data-name="Layer 2"><path d="M1.43078,1.37262a.19753.19753,0,0,0-.09909-.06318A.152.152,0,0,0,1.287,1.30415.47341.47341,0,0,0,1.22871,1.127.46344.46344,0,0,0,.84506.91931a.63242.63242,0,0,0-.44031.13831.45843.45843,0,0,0-.16109.43659.01285.01285,0,0,0,.02553-.00279.42366.42366,0,0,1,.15328-.33618.55829.55829,0,0,1,.36667-.12056.395.395,0,0,1,.31914.12812.51812.51812,0,0,1,.0879.29375l-.00148.00235-.00839.00521-.00558.00219-.01812.0062a.148.148,0,0,1-.05081.01093.55276.55276,0,0,1-.1396-.02682.82858.82858,0,0,1-.2525-.09933c-.012-.00806-.03017.00659-.01933.019a.59486.59486,0,0,0,.2666.19745.38391.38391,0,0,0,.18456.024.15843.15843,0,0,0,.03592-.0117.47863.47863,0,0,1-.15.28386.0236.0236,0,0,0,.02843.03764.47044.47044,0,0,0,.20959-.33861,1.01814,1.01814,0,0,0,.01669-.14561l.00816.00119.01355.00594a.091.091,0,0,1,.03821.03613.1975.1975,0,0,1,.02013.04919.30136.30136,0,0,1,.00841.07508.3673.3673,0,0,1-.02889.13834.14191.14191,0,0,1-.03929.0562c-.01007.00832-.02128.01487-.03185.02247-.01165.00837-.02073.02018-.03631.02081-.01662.00067-.01354.02589.00279.02553.01753-.00039.03348.00814.05124.00728a.11646.11646,0,0,0,.04858-.01488.19859.19859,0,0,0,.079-.07689A.46058.46058,0,0,0,1.49,1.575.27694.27694,0,0,0,1.43078,1.37262Z"/><path d="M3.99083,1.12679c-.0452-.09444-.16211-.08806-.24975-.06876-.12717.028-.253.06429-.37917.0966a2.8423,2.8423,0,0,0-.71887.24363c-.10711.061-.21069.127-.32216.18a3.30719,3.30719,0,0,1-.33683.13882,3.39957,3.39957,0,0,1-.347.09981,2.43349,2.43349,0,0,0-.328.07671.38992.38992,0,0,0-.15372.1018.60745.60745,0,0,0-.0939.16838c-.02958.07011-.06017.13993-.08429.21216-.02434.07291-.04739.14592-.07641.21717a.0134.0134,0,0,0,.02458.01061c.02955-.05919.06311-.11571.09637-.17282s.06364-.1151.09249-.17449a.56022.56022,0,0,1,.17956-.25764.91167.91167,0,0,1,.29493-.08121,2.83176,2.83176,0,0,0,.339-.09,3.28482,3.28482,0,0,0,.63941-.29742,1.853,1.853,0,0,1,.31694-.16261c.11515-.04163.23459-.06936.35291-.10019L3.65316,1.159c.09024-.02353.2128-.07086.29355.00084A.02875.02875,0,0,0,3.99083,1.12679Z"/><path d="M1.67356,2.21369a.4399.4399,0,0,0-.19183.13136.264.264,0,0,0-.07662.19326.01765.01765,0,0,0,.03351.005.42594.42594,0,0,1,.104-.15846c.05054-.048.11378-.07928.16109-.13092C1.7228,2.23313,1.69592,2.20708,1.67356,2.21369Z"/><path d="M3.59041,1.3539a.30288.30288,0,0,0-.16563.02942.81874.81874,0,0,0-.15166.084c-.09877.06709-.1931.13925-.29489.202a4.4869,4.4869,0,0,1-.664.32982c-.13069.05329-.26293.10382-.39249.15972-.00911.00393-.00616.02028.00442.01781.12156-.0284.24177-.06382.36129-.0998a3.487,3.487,0,0,0,.34891-.12421,2.45114,2.45114,0,0,0,.3299-.17087c.10478-.06443.19291-.14766.29046-.22156a1.00146,1.00146,0,0,1,.15785-.10269.51957.51957,0,0,1,.08881-.03485c.03057-.00864.06223-.01032.09263-.01943C3.6225,1.39544,3.61312,1.35892,3.59041,1.3539Z"/><path d="M2.1117,3.51036c-.02385-.03282-.06181-.03907-.09686-.05407a.30951.30951,0,0,1-.0842-.05457.53734.53734,0,0,1-.12316-.1692A1.05378,1.05378,0,0,1,1.705,2.73048a1.29623,1.29623,0,0,1,.0164-.14378c.00384-.02415.00864-.04806.01409-.07189a.34324.34324,0,0,1,.01889-.074c.00778-.01561-.01457-.02709-.02519-.015a.26087.26087,0,0,0-.04031.05108.42979.42979,0,0,0-.02632.06729.8955.8955,0,0,0-.033.14132,1.07822,1.07822,0,0,0-.00794.25887l-.00582.00587c-.01525.01607-.0298.03269-.04619.04767a.721.721,0,0,1-.09823.07421.44533.44533,0,0,1-.2378.07806.22531.22531,0,0,1-.1868-.09326A.36027.36027,0,0,1,1.01,2.8328c.00443-.05131.01227-.10264.02012-.15353a1.05409,1.05409,0,0,1,.0332-.16871c.00483-.01458-.01719-.02422-.02206-.00952-.01741.05257-.04106.10275-.05745.15588a1.18894,1.18894,0,0,0-.03746.155.4371.4371,0,0,0,.025.27532.29762.29762,0,0,0,.22167.1534.42873.42873,0,0,0,.291-.07129.62593.62593,0,0,0,.12938-.10522l.02111-.0243a.81106.81106,0,0,0,.2106.43213.449.449,0,0,0,.06181.05126l-.03949.03426a.44138.44138,0,0,0-.08533.09315c-.01359.02022.01024.04858.03133.03186.03071-.02434.06224-.04917.09468-.07117.02616-.01773.05728-.02759.0847-.04283a.10807.10807,0,0,0,.1121-.00926A.03575.03575,0,0,0,2.1117,3.51036Z"/><path d="M3.21619,3.27176A.08746.08746,0,0,0,3.19451,3.232.2085.2085,0,0,0,3.14185,3.191a.46837.46837,0,0,0-.1062-.03976.57673.57673,0,0,0-.2222-.01479.72608.72608,0,0,0-.40691.19571,1.78979,1.78979,0,0,1-.19811.17951c-.00922.00662-.00037.02362.01007.0179.06364-.03491.11712-.08388.17781-.12332a1.213,1.213,0,0,1,.187-.09751.663.663,0,0,1,.3898-.047.48523.48523,0,0,1,.09626.03085c.01744.00737.03448.01456.05242.02061a.28755.28755,0,0,0,.034.01017l.0129.00178a.02392.02392,0,0,0,.01249-.00143q.01155-.00356.00183.00058C3.21413,3.33223,3.22819,3.29447,3.21619,3.27176Z"/><path d="M4.1923,3.16778a.59008.59008,0,0,0-.23885-.02393A1.44807,1.44807,0,0,0,3.72,3.16536a1.26794,1.26794,0,0,0-.45.16686,2.14078,2.14078,0,0,0-.21321.15656.012.012,0,0,0,.01448.01917,1.86005,1.86005,0,0,1,.42037-.17231,1.95444,1.95444,0,0,1,.43346-.0863q.06331-.00506.12691-.00516a.61357.61357,0,0,0,.12959-.005A.03768.03768,0,0,0,4.1923,3.16778Z"/><path d="M3.80277,1.7516c-.01862-.00079-.0364-.00412-.05518-.00461-.02057-.00054-.04073.00271-.06129.00339a.13537.13537,0,0,1-.07973-.02177c-.05429-.03609-.05567-.124-.04431-.18054.00306-.01521-.01919-.0176-.02321-.00353a.4878.4878,0,0,0-.0307.13172.16181.16181,0,0,0,.04309.11408.17812.17812,0,0,0,.11647.05045.23357.23357,0,0,0,.07933-.00607.27886.27886,0,0,0,.06732-.03654A.0263.0263,0,0,0,3.80277,1.7516Z"/><path d="M4.15482,3.05994a.62273.62273,0,0,0-.0353-.09205c-.01238-.03182-.02387-.064-.03573-.096a1.17421,1.17421,0,0,1-.0499-.19891c-.03185-.17049-.067-.33961-.10747-.50829-.023-.09588-.046-.19164-.07157-.28686-.00416-.01546-.02727-.00812-.02629.00653.01188.178.02648.35744.04971.53438a2.50471,2.50471,0,0,0,.08667.47642.369.369,0,0,0,.05908.11417.21144.21144,0,0,0,.09495.07708C4.13531,3.09113,4.15942,3.08118,4.15482,3.05994Z"/><path d="M3.97881,3.04081a.93526.93526,0,0,0-.05048-.083.81129.81129,0,0,1-.03973-.0952,1.8223,1.8223,0,0,1-.0634-.21192A2.18874,2.18874,0,0,1,3.773,2.20146c-.0009-.04145-.00146-.0828-.00008-.12425.00142-.04252-.002-.08465-.00269-.12711a.0173.0173,0,0,0-.01048-.01418.47665.47665,0,0,0-.10592-.01958.25856.25856,0,0,1-.20523-.22055c-.00082-.014-.02428-.01487-.02491-.00052a.3124.3124,0,0,0,.01476.12394.27578.27578,0,0,0,.07536.11239.28244.28244,0,0,0,.125.05864.174.174,0,0,0,.08461-.00133.55264.55264,0,0,0-.01635.06957c-.006.03811-.00863.07714-.0112.11561a1.58893,1.58893,0,0,0,.00468.23888,1.93866,1.93866,0,0,0,.09953.46625A.88821.88821,0,0,0,3.8447,2.991a.178.178,0,0,0,.08568.0968A.037.037,0,0,0,3.97881,3.04081Z"/><path d="M4.10307,1.54659a.04739.04739,0,0,0-.00778-.02487l.00057-.01322.00242-.03184a.54911.54911,0,0,0-.00162-.06049.30737.30737,0,0,0-.03359-.1186c-.00954-.01838-.0394-.00743-.03052.01212A.333.333,0,0,1,4.062,1.416a.2087.2087,0,0,1-.00213.05486l-.00368.01883a.39.39,0,0,0-.0424-.01814c-.03569-.01357-.07327-.02383-.11-.03423a.91693.91693,0,0,0-.1051-.02442c-.01785-.00285-.03583-.00567-.05387-.00676a.52838.52838,0,0,1-.0592-.00076.01257.01257,0,0,0-.00378.02484.28912.28912,0,0,1,.05413.02163l.05046.01879c.03247.01257.06474.02536.0963.04012a.93446.93446,0,0,1,.08857.04848c.01553.00941.032.01753.0482.02575a.06091.06091,0,0,0,.06716-.00032.03667.03667,0,0,0,.01552-.03858Z"/><path d="M3.89915.94048A.74536.74536,0,0,1,3.87853.86456a.41013.41013,0,0,1-.0128-.16124c.00307-.016-.02146-.01948-.02484-.00378-.00619.02873-.0151.05678-.02065.08565A.38119.38119,0,0,0,3.82856.955c.00687.02685.01423.068.04405.07749a.03112.03112,0,0,0,.03969-.01575C3.92483.99117,3.9075.96509,3.89915.94048Z"/><path d="M3.83322.62868a.24057.24057,0,0,0-.1107.0352.265.265,0,0,0-.08306.08906.39947.39947,0,0,0-.0484.13279c-.00762.04023-.027.12063.0153.14645a.03627.03627,0,0,0,.04152.00036c.03634-.02213.0261-.08424.03122-.1207A.42186.42186,0,0,1,3.70935.80257.33734.33734,0,0,1,3.76.72174a.25467.25467,0,0,1,.07923-.0689A.01262.01262,0,0,0,3.83322.62868Z"/><path d="M3.605.68463a.2406.2406,0,0,0-.10617.04713.265.265,0,0,0-.07279.09764.39945.39945,0,0,0-.03354.1373c-.00316.04083-.01364.12287.03127.14388a.03627.03627,0,0,0,.0413-.0042c.03369-.026.01671-.08659.01779-.12339A.42188.42188,0,0,1,3.501.87106a.33735.33735,0,0,1,.04147-.0859A.25468.25468,0,0,1,3.61363.708.01262.01262,0,0,0,3.605.68463Z"/><path d="M4.73968,3.03047A2.84667,2.84667,0,0,0,4.60743,2.687c-.10258-.22761-.219-.44919-.33816-.66848q-.04914-.09045-.09457-.18284a1.414,1.414,0,0,1-.08641-.19456c-.005-.01583-.02854-.00621-.02386.00947.018.06055.02928.123.04678.18387q.01866.06491.04023.12893a.34561.34561,0,0,0-.08137.02786.28688.28688,0,0,0-.0493.02962.2578.2578,0,0,0-.03852.04388c-.008.00979.00338.02687.01549.0207.01559-.00795.03269-.01184.04877-.01884.0152-.00662.03018-.01374.04578-.01943a.39782.39782,0,0,1,.0812-.02054c.03929.1093.08551.21527.13495.32043.10364.22045.21173.43785.2977.6661a3.01688,3.01688,0,0,1,.1193.41362.03505.03505,0,0,0,.06917.00146A.877.877,0,0,0,4.73968,3.03047Z"/><path d="M1.38065,3.90714c-.02353-.01837-.04565-.03723-.07051-.054-.02354-.01591-.04748-.03147-.0699-.049A.47417.47417,0,0,1,1.183,3.75244a.65914.65914,0,0,1-.05736-.06933,1.81273,1.81273,0,0,1-.103-.16482L.972,3.42949.94508,3.38157a.31941.31941,0,0,1-.02632-.04807C.91391,3.31911.89231,3.32866.89713,3.343a.39657.39657,0,0,1,.00905.06162L.9149,3.4577a.81917.81917,0,0,0,.02446.103A.32134.32134,0,0,1,.816,3.496a.27656.27656,0,0,1-.09288-.143.30769.30769,0,0,1,.01353-.10241c.00721-.03511.01519-.07007.02423-.10476.01792-.06869.03874-.13692.06131-.20422C.83475,2.90411.84672,2.8665.86,2.82927A.5301.5301,0,0,0,.89247,2.712C.89355,2.70239.881,2.694.87331,2.70141a.59969.59969,0,0,0-.116.19784,1.711,1.711,0,0,0-.07757.22743Q.6639,3.1852.65084,3.24446a.33063.33063,0,0,0-.0121.12069.26883.26883,0,0,0,.12885.16939.42922.42922,0,0,0,.18783.07316.68676.68676,0,0,0,.08289.15907.62872.62872,0,0,0,.13548.13988.25642.25642,0,0,0,.19281.05724A.03192.03192,0,0,0,1.38065,3.90714Z"/><path d="M4.7104,3.51089a1.77724,1.77724,0,0,1-.24961.14872c-.10652.05134-.21482.09879-.32039.15208a4.95173,4.95173,0,0,1-.62694.28648,2.79372,2.79372,0,0,1-1.013.1429l.00466-.0242A.61233.61233,0,0,0,2.513,4.11412.87551.87551,0,0,0,2.488,3.923c-.014-.0656-.03048-.13073-.04624-.19592l-.02438-.10018c-.00417-.017-.00893-.03376-.01362-.05059-.00543-.0195-.014-.03823-.01774-.05814-.003-.01617-.02857-.01346-.02553.00279.0062.03315.00458.06823.00825.10191.00369.03387.00827.06766.01232.10149.00777.06491.016.1298.021.195a1.34544,1.34544,0,0,1,.00154.184.81517.81517,0,0,1-.01007.088c-.00246.01447-.00595.02857-.009.04265q-.05684-.0046-.11345-.01139c-.119-.01431-.23743-.03242-.35466-.05739-.11592-.02469-.23-.056-.34652-.0776a.01376.01376,0,0,0-.01048.02427,1.62374,1.62374,0,0,0,.61217.22087,2.59338,2.59338,0,0,0,.66038.03053,2.82108,2.82108,0,0,0,.64952-.12469,4.27557,4.27557,0,0,0,.63765-.28036c.12351-.06263.24454-.12942.3664-.19516a.49452.49452,0,0,0,.25956-.225A.02294.02294,0,0,0,4.7104,3.51089Z"/><path d="M3.39212,1.5717c-.08473.05983-.17362.11474-.25709.17631-.08067.0595-.15926.1205-.24387.17456a2.96144,2.96144,0,0,1-.50667.25643c-.04958.01954-.0998.03767-.14993.05574a1.44223,1.44223,0,0,1-.15884.0543c-.01614.00376-.01381.02955.00285.02608.04811-.01.09678-.01363.14483-.02389s.09552-.02214.14255-.03649a2.23842,2.23842,0,0,0,.27751-.10248,2.54064,2.54064,0,0,0,.50925-.31435A2.49584,2.49584,0,0,0,3.40614,1.586C3.41426,1.57743,3.40112,1.56534,3.39212,1.5717Z"/><path d="M.355,1.93468c-.01785-.007-.035-.01377-.05325-.01962a.16831.16831,0,0,1-.02908-.01319,1.13482,1.13482,0,0,0,.03169-.14965A.51881.51881,0,0,0,.3001,1.66857C.29581,1.64.28683,1.6132.27983,1.58525.2767,1.57277.257,1.57842.25831,1.59059c.00241.02305.00245.046.00411.06906a.36279.36279,0,0,1,.00056.072A.75164.75164,0,0,1,.2221,1.856a.17713.17713,0,0,0-.014.067.06364.06364,0,0,0,.03375.04022.10705.10705,0,0,0,.11256.01041A.02141.02141,0,0,0,.355,1.93468Z"/><path d="M.83436,2.09742a.23853.23853,0,0,0,.05858-.06418c.01611-.023-.00623-.061-.03524-.0471-.02181.01044-.04421.01766-.06534.03-.01882.01094-.03749.022-.05692.03188A.58438.58438,0,0,1,.605,2.0957a.41886.41886,0,0,1-.13124.01276.19463.19463,0,0,0-.03221-.00012l-.00234.00019a.17143.17143,0,0,1-.0107-.01469c-.00847-.018-.01383-.037-.02373-.05438-.00632-.01108-.024-.00055-.01933.01087.01651.0402.00929.10012.04773.12849a.13906.13906,0,0,0,.08511.01574.56124.56124,0,0,0,.08125-.00642l.034-.00629a.24288.24288,0,0,1,.0639.05094.295.295,0,0,1,.06.08408.55793.55793,0,0,1,.03374.12207c.00859.047.00839.09482.01518.14195a.01932.01932,0,0,0,.03667.00551.38829.38829,0,0,0-.00162-.32487A.24189.24189,0,0,0,.7376,2.15683l-.00844-.004.03028-.01295A.49839.49839,0,0,0,.83436,2.09742Z"/><path d="M1.049,1.72406c-.03056-.00251-.05569-.03772-.07264-.06092a.22806.22806,0,0,0-.07613-.07273C.86964,1.574.83514,1.56707.80419,1.55131l-.01682-.009q.00685.00428-.00257-.00157l-.017-.00991L.75753,1.52427.73905,1.51149C.69136,1.47706.64636,1.44.59617,1.40893a.34291.34291,0,0,0-.16955-.05055.01484.01484,0,0,0-.00807.02816.43146.43146,0,0,1,.12756.11168.79418.79418,0,0,0,.13943.12839.31294.31294,0,0,0,.09753.04375.37269.37269,0,0,1,.09252.02129c.02977.01672.04974.04686.07842.06508a.10216.10216,0,0,0,.09945.00622C1.06984,1.75477,1.07085,1.72585,1.049,1.72406Z"/><path d="M.37224,1.68152a.46013.46013,0,0,1-.14757.04208C.19756,1.722.18732,1.75233.2143,1.75387A.34084.34084,0,0,0,.31366,1.754.191.191,0,0,0,.4044,1.71213C.426,1.69346.40268,1.671.37224,1.68152Z"/></g></svg>